<svg xmlns="http://www.w3.org/2000/svg" viewBox="0 0 109 25" >
	<path d="M69.917 16.8184C67.6636 16.8184 66.5064 14.9632 66.5064 12.6844C66.5064 10.4056 67.6433 8.6512 69.917 8.6512C72.2313 8.6512 73.3276 10.4863 73.3276 12.6844C73.3073 15.0035 72.1501 16.8184 69.917 16.8184ZM47.87 8.6512C49.1896 8.6512 49.7377 9.41751 49.7377 10.083C49.7377 11.6963 48.0933 12.4021 44.6624 12.5029C44.6624 10.5065 45.7993 8.6512 47.87 8.6512ZM33.2532 16.8184C31.1216 16.8184 30.2283 15.0841 30.2283 12.6844C30.2283 10.3048 31.1419 8.6512 33.2532 8.6512C35.4051 8.6512 36.4202 10.3653 36.4202 12.6844C36.4202 15.1043 35.3645 16.8184 33.2532 16.8184ZM15.2258 6.29178H11.8964L17.4183 18.956C16.3627 21.2953 15.7943 21.8801 15.0634 21.8801C14.292 21.8801 13.5611 21.2549 13.0333 20.7105L11.5716 22.6464C12.5664 23.695 13.9266 24.3 15.3273 24.3C17.0732 24.3 18.4131 23.2917 19.1845 21.4768L25.5591 6.27162H22.2906L18.9612 15.3463L15.2258 6.29178ZM103.414 8.6512C105.038 8.6512 105.363 9.76033 105.363 12.3617V19.198H108.245V10.567C108.245 7.46141 106.114 6.11029 104.145 6.11029C102.399 6.11029 100.795 7.19925 99.9017 9.21585C99.3942 7.27992 97.7701 6.11029 95.8821 6.11029C94.2377 6.11029 92.5933 7.15892 91.7001 9.11502V6.29178H88.8173V19.1778H91.7001V13.6725C91.7001 10.8896 93.1617 8.6512 95.1512 8.6512C96.7753 8.6512 97.0799 9.76033 97.0799 12.3617V19.198H99.9626L99.9423 13.6725C99.9423 10.8896 101.424 8.6512 103.414 8.6512ZM80.32 6.29178H78.951V19.1778H81.8337V14.2372C81.8337 11.1115 83.2142 8.99402 85.2646 8.99402C85.7924 8.99402 86.2391 9.01419 86.7263 9.21585L87.1729 6.17079C86.8075 6.13046 86.4827 6.09012 86.1579 6.09012C84.1277 6.09012 82.6661 7.48158 81.8134 9.27635V6.29178H80.32ZM69.917 6.09012C66.1004 6.09012 63.5221 8.99402 63.5221 12.6642C63.5221 16.4756 66.141 19.319 69.917 19.319C73.7539 19.319 76.3727 16.3949 76.3727 12.6642C76.3524 8.97386 73.693 6.09012 69.917 6.09012ZM48.0324 16.8184C46.5301 16.8184 45.4136 16.0521 44.9466 14.4993C48.7632 14.338 52.4986 13.4104 52.4986 10.0427C52.4986 8.10672 50.5903 6.11029 47.8497 6.11029C44.1549 6.11029 41.6578 9.11502 41.6578 12.6844C41.6578 16.4151 44.1143 19.3392 47.7888 19.3392C50.3467 19.3392 51.9708 18.3107 53.2498 16.8184L51.849 14.9228C50.367 16.4353 49.4535 16.8184 48.0324 16.8184ZM33.8216 6.09012C32.3599 6.09012 30.8983 6.9371 30.3298 8.26805V6.29178H27.4471V24.2395H30.3298V17.8267C30.9389 18.7544 32.3396 19.3593 33.578 19.3593C37.4149 19.3593 39.445 16.5159 39.445 12.6844C39.4247 8.8932 37.4352 6.09012 33.8216 6.09012ZM13.6017 1.12929H0V3.93237H5.31889V19.1778H8.34375V3.93237H13.6017V1.12929ZM56.4574 6.29178H54.7318V8.87303H56.4574V19.1778H59.3401V8.87303H62.1417V6.29178H59.3401V4.27519C59.3401 2.98456 59.8679 2.54091 61.0657 2.54091C61.5123 2.54091 61.9184 2.66191 62.4665 2.8434L63.1161 0.423485C62.5883 0.120996 61.5326 0 60.8424 0C58.0814 0 56.4574 1.65361 56.4574 4.51718V6.29178Z" fill="currentColor"></path>
</svg>
